<svg xmlns="http://www.w3.org/2000/svg" width="40" height="40" viewBox="0 0 40 40" fill="none">
  <rect width="40" height="40" rx="10" fill="#0E1B2C"></rect>
  <path d="M18.52 7.89 Q20.00 6.80 21.48 7.89 Q22.95 8.99 24.78 8.78 Q26.60 8.57 27.33 10.25 Q28.06 11.94 29.75 12.67 Q31.43 13.40 31.22 15.22 Q31.01 17.05 32.11 18.52 Q33.20 20.00 32.11 21.48 Q31.01 22.95 31.22 24.78 Q31.43 26.60 29.75 27.33 Q28.06 28.06 27.33 29.75 Q26.60 31.43 24.78 31.22 Q22.95 31.01 21.48 32.11 Q20.00 33.20 18.52 32.11 Q17.05 31.01 15.22 31.22 Q13.40 31.43 12.67 29.75 Q11.94 28.06 10.25 27.33 Q8.57 26.60 8.78 24.78 Q8.99 22.95 7.89 21.48 Q6.80 20.00 7.89 18.52 Q8.99 17.05 8.78 15.22 Q8.57 13.40 10.25 12.67 Q11.94 11.94 12.67 10.25 Q13.40 8.57 15.22 8.78 Q17.05 8.99 18.52 7.89Z" fill="#1E9E6A"></path>
  <path d="M14.6 20.2 L18.2 23.8 L25.6 15.9" fill="none" stroke="#FFFFFF" stroke-width="2.6" stroke-linecap="round" stroke-linejoin="round"></path>
</svg>